<svg xmlns="http://www.w3.org/2000/svg" viewBox="0 0 24.82 33.26"><title>logo-sm</title><g id="Capa_2" data-name="Capa 2"><g id="Capa_1-2" data-name="Capa 1"><g id="box"><path d="M17.05,24.36a2.41,2.41,0,0,1-.64-.09c-3.66-.93-7.34-1.81-11-2.69l-1-.23a2.45,2.45,0,0,1-1.33-.82,8,8,0,0,1-1.4-2.48,17.81,17.81,0,0,1-1.2-4.94,5.93,5.93,0,0,1,.89-3.7,4.21,4.21,0,0,1,1-1.13,1.72,1.72,0,0,1,1.07-.39,1.85,1.85,0,0,1,.88.24A4.75,4.75,0,0,1,6,9.69l0,0A5,5,0,0,0,5,7.13,5.9,5.9,0,0,1,4.3,6a3,3,0,0,1,.87-3.49A8,8,0,0,1,8.93.69,6.87,6.87,0,0,1,10.32.52L11,.5a18.23,18.23,0,0,1,4.37.7l.52.13a13.82,13.82,0,0,1,3.89,1.38,9.08,9.08,0,0,1,4.16,4.84,6.41,6.41,0,0,1,.2,3.79A43.68,43.68,0,0,1,20.61,21a8.85,8.85,0,0,1-2,2.75A2.26,2.26,0,0,1,17.05,24.36Z" style="fill:#da2b34"/><path d="M11,1a17.31,17.31,0,0,1,4.25.69A15,15,0,0,1,19.5,3.14a8.57,8.57,0,0,1,3.94,4.57,5.91,5.91,0,0,1,.2,3.5,43.32,43.32,0,0,1-3.47,9.55,8.61,8.61,0,0,1-1.92,2.6,1.79,1.79,0,0,1-1.2.5,2.58,2.58,0,0,1-.52-.07c-4-1-8-2-12-2.93a1.9,1.9,0,0,1-1.07-.65,7.52,7.52,0,0,1-1.32-2.34A17.72,17.72,0,0,1,1,13.07a5.51,5.51,0,0,1,.81-3.4,3.69,3.69,0,0,1,.93-1,1.23,1.23,0,0,1,.76-.28,1.32,1.32,0,0,1,.64.18A4.11,4.11,0,0,1,5.57,10a.51.51,0,0,1,0,.45,6.92,6.92,0,0,1-2,3.82c-.2.2-.33.42-.11.67a.41.41,0,0,0,.31.17.55.55,0,0,0,.39-.21A7.54,7.54,0,0,0,6.51,9.94,5.21,5.21,0,0,0,5.37,6.86a5.2,5.2,0,0,1-.6-1.08A2.47,2.47,0,0,1,5.5,2.84,7.41,7.41,0,0,1,9,1.18,6.78,6.78,0,0,1,10.32,1h0L11,1m0-1-.64,0h0A7.69,7.69,0,0,0,8.83.2a8.47,8.47,0,0,0-4,1.88,3.47,3.47,0,0,0-1,4.05,6.67,6.67,0,0,0,.68,1.25,4,4,0,0,1,.24.38.35.35,0,0,0-.12-.07,2.29,2.29,0,0,0-1.11-.3,2.17,2.17,0,0,0-1.37.49A4.92,4.92,0,0,0,1,9.14a6.55,6.55,0,0,0-1,4,18.82,18.82,0,0,0,1.23,5.08,8.64,8.64,0,0,0,1.49,2.63,2.91,2.91,0,0,0,1.59,1l.94.23c3.61.87,7.35,1.77,11,2.7a3.62,3.62,0,0,0,.77.1,2.77,2.77,0,0,0,1.85-.74,9.69,9.69,0,0,0,2.16-2.89,45.65,45.65,0,0,0,3.55-9.77,6.9,6.9,0,0,0-.22-4.08A9.57,9.57,0,0,0,20,2.28,14.3,14.3,0,0,0,16,.84L15.47.72A18,18,0,0,0,11,0Z"/><path d="M14.63,32.76a1.15,1.15,0,0,1-.31,0c-3.86-1-7.72-1.89-11.58-2.82a.81.81,0,0,1-.69-1.06c.25-1.19.48-2.38.72-3.57l.46-2.34c.08-.69.5-.76.68-.76H4l.12,0,2.77.66,2.88.7q3.33.82,6.66,1.62a.94.94,0,0,1,.65.41.92.92,0,0,1,0,.76c-.57,1.9-1.12,3.82-1.67,5.73A.8.8,0,0,1,14.63,32.76Z" style="fill:#646668"/><path d="M3.91,22.67H4l2.75.66,9.54,2.32c.33.08.44.16.33.53C16,28.1,15.47,30,14.92,31.93c-.06.23-.12.33-.29.33l-.19,0L2.86,29.41c-.3-.07-.38-.15-.32-.47C3,27,3.33,25,3.72,23c0-.14,0-.36.19-.36m0-1a1.17,1.17,0,0,0-1.17,1.16c-.15.78-.31,1.56-.46,2.34-.24,1.19-.47,2.38-.72,3.57a1.31,1.31,0,0,0,1.06,1.65c4.33,1,8.12,2,11.58,2.81a1.65,1.65,0,0,0,.43.06,1.27,1.27,0,0,0,1.25-1c.53-1.84,1.09-3.81,1.67-5.73a1.29,1.29,0,0,0-1-1.79L9.83,23.06,7,22.36,5.1,21.92l-.89-.22-.3,0Z"/><path d="M6.66,16.25A1.32,1.32,0,0,1,6.73,16l.73-1.68c.12-.29.32-.42.61-.31s.3.36.19.62c-.26.6-.53,1.2-.8,1.79A.38.38,0,0,1,7,16.7C6.78,16.66,6.67,16.52,6.66,16.25Z" style="fill:#010000"/><path d="M6.71,2.5a.47.47,0,0,1,.38.19A11.17,11.17,0,0,1,8.31,4.28a.41.41,0,0,1-.1.63.39.39,0,0,1-.59-.13A13.57,13.57,0,0,0,6.43,3.23a.45.45,0,0,1-.07-.48A.4.4,0,0,1,6.71,2.5Z" style="fill:#010000"/><path d="M9.61,8c0,.15,0,.31,0,.47a.4.4,0,0,1-.39.42.37.37,0,0,1-.43-.34,12.18,12.18,0,0,0-.36-2.06A.38.38,0,0,1,8.76,6a.4.4,0,0,1,.51.29A7.86,7.86,0,0,1,9.61,8Z" style="fill:#010000"/><path d="M9.49,10.59A11.26,11.26,0,0,1,9,12.66a.38.38,0,0,1-.5.21.35.35,0,0,1-.27-.43c.15-.71.32-1.41.5-2.11a.37.37,0,0,1,.47-.26C9.39,10.12,9.49,10.29,9.49,10.59Z" style="fill:#010000"/><path d="M6,18a.4.4,0,0,1,.38.59,5,5,0,0,1-1.25,1.5A.37.37,0,0,1,4.58,20a.36.36,0,0,1,0-.54,10.76,10.76,0,0,0,1.14-1.37A.31.31,0,0,1,6,18Z" style="fill:#010000"/><path d="M14.91,26.61l-.23.93-.72,3c-.13.52-.28.62-.78.5L4.51,28.91c-.5-.12-.58-.27-.46-.77L5,24.45c.12-.48.27-.58.72-.47l8.67,2.11C14.62,26.16,14.87,26.24,14.91,26.61Z"/><path d="M13.93,27l0,.12c-.22.9-.45,1.8-.66,2.7-.05.21-.11.27-.34.21L5.18,28.2c-.2-.05-.24-.14-.19-.33.23-.91.45-1.82.67-2.73,0-.19.11-.26.32-.21,2.57.64,5.14,1.26,7.71,1.89C13.8,26.85,14,26.84,13.93,27Z" style="fill:#f19227"/></g></g></g></svg>