<svg id="Capa_1" data-name="Capa 1" xmlns="http://www.w3.org/2000/svg" viewBox="0 0 194.63 92"><title>logo</title><text transform="translate(0 75.93)" style="font-size:50px;fill:#111;font-family:Oxygen-Bold, Oxygen;font-weight:700;letter-spacing:-0.025em">su<tspan x="49.94" y="0" style="letter-spacing:-0.02548828125em">d</tspan><tspan x="79.4" y="0">oku</tspan></text><g id="box"><text transform="translate(107.99 42.88)" style="font-size:50px;fill:#111;font-family:Oxygen-Bold, Oxygen;font-weight:700;letter-spacing:-0.025em">b<tspan x="29.46" y="0" xml:space="preserve" style="font-size:41px;letter-spacing:-0.024997618140243903em">   </tspan><tspan x="58.88" y="0">x</tspan></text><path d="M321.64,157a2.87,2.87,0,0,1-.64-.08c-3.66-.93-7.34-1.82-11-2.7L309,154a2.43,2.43,0,0,1-1.33-.81,8,8,0,0,1-1.4-2.48,17.88,17.88,0,0,1-1.2-5,5.94,5.94,0,0,1,.89-3.7,4.21,4.21,0,0,1,1-1.13,1.72,1.72,0,0,1,1.07-.39,1.85,1.85,0,0,1,.88.24,4.75,4.75,0,0,1,1.59,1.56s0,0,0,0a5,5,0,0,0-1.06-2.59,6.18,6.18,0,0,1-.65-1.18,3,3,0,0,1,.88-3.5,7.93,7.93,0,0,1,3.75-1.77,7.66,7.66,0,0,1,1.39-.17l.66,0a17.75,17.75,0,0,1,4.37.71l.52.12a13.54,13.54,0,0,1,3.89,1.39,9,9,0,0,1,4.16,4.83,6.5,6.5,0,0,1,.21,3.79,44.15,44.15,0,0,1-3.52,9.66,9.08,9.08,0,0,1-2,2.75A2.29,2.29,0,0,1,321.64,157Z" transform="translate(-163.99 -120.64)" style="fill:#da2b34"/><path d="M315.57,133.65a17.8,17.8,0,0,1,4.25.69,15.79,15.79,0,0,1,4.28,1.45,8.58,8.58,0,0,1,3.93,4.58,5.9,5.9,0,0,1,.2,3.5,43.51,43.51,0,0,1-3.47,9.55,8.61,8.61,0,0,1-1.92,2.6,1.82,1.82,0,0,1-1.2.49,2,2,0,0,1-.52-.07c-4-1-8-2-12-2.92a2,2,0,0,1-1.07-.66,8,8,0,0,1-1.32-2.33,17.7,17.7,0,0,1-1.16-4.81,5.52,5.52,0,0,1,.81-3.4,3.81,3.81,0,0,1,.93-1,1.19,1.19,0,0,1,.76-.29,1.32,1.32,0,0,1,.64.18,4.14,4.14,0,0,1,1.41,1.41.51.51,0,0,1,0,.45,7,7,0,0,1-2,3.82c-.2.19-.32.42-.11.67a.41.41,0,0,0,.31.17.59.59,0,0,0,.39-.21,7.57,7.57,0,0,0,2.29-4.94,5.14,5.14,0,0,0-1.14-3.08,5,5,0,0,1-.6-1.08,2.48,2.48,0,0,1,.73-2.94,7.5,7.5,0,0,1,3.52-1.66,7.68,7.68,0,0,1,1.3-.16h0l.61,0m0-1-.64,0h0a7.69,7.69,0,0,0-1.49.18,8.47,8.47,0,0,0-4,1.88,3.49,3.49,0,0,0-1,4.05,6.37,6.37,0,0,0,.68,1.25l.25.38-.12-.07a2.35,2.35,0,0,0-1.12-.3,2.23,2.23,0,0,0-1.37.49,5,5,0,0,0-1.17,1.27,6.52,6.52,0,0,0-1,4,18.73,18.73,0,0,0,1.23,5.08,8.52,8.52,0,0,0,1.49,2.63,3,3,0,0,0,1.6,1l.93.22c3.61.87,7.35,1.77,11,2.7a2.94,2.94,0,0,0,.76.1,2.79,2.79,0,0,0,1.85-.73,9.6,9.6,0,0,0,2.16-2.9,45.59,45.59,0,0,0,3.55-9.76A6.93,6.93,0,0,0,329,140a9.52,9.52,0,0,0-4.37-5.09,13.7,13.7,0,0,0-4-1.44l-.51-.13a18.49,18.49,0,0,0-4.49-.72Z" transform="translate(-163.99 -120.64)"/><path d="M319.22,165.41a1.15,1.15,0,0,1-.31,0q-5.79-1.43-11.58-2.82a.81.81,0,0,1-.69-1.06c.25-1.19.48-2.38.72-3.56l.46-2.34c.08-.7.5-.77.68-.77h.06l.12,0,2.76.66,2.88.71,6.66,1.62a.94.94,0,0,1,.65.41.91.91,0,0,1,0,.75c-.58,1.91-1.13,3.82-1.68,5.74A.79.79,0,0,1,319.22,165.41Z" transform="translate(-163.99 -120.64)" style="fill:#646668"/><path d="M308.5,155.32h.07l2.75.66c3.18.78,6.36,1.56,9.54,2.32.33.08.44.16.33.54-.58,1.9-1.13,3.82-1.68,5.74-.06.22-.12.32-.29.32l-.19,0c-3.86-1-7.72-1.89-11.58-2.82-.3-.07-.38-.16-.32-.48.41-2,.79-3.93,1.18-5.9,0-.14,0-.37.19-.37m0-1a1.17,1.17,0,0,0-1.17,1.16c-.15.79-.31,1.57-.46,2.35-.24,1.18-.47,2.37-.72,3.56a1.31,1.31,0,0,0,1.06,1.65c4.33,1,8.12,2,11.58,2.82a1.63,1.63,0,0,0,.43,0,1.26,1.26,0,0,0,1.26-1c.52-1.84,1.08-3.8,1.66-5.72a1.42,1.42,0,0,0-.07-1.15,1.44,1.44,0,0,0-1-.65c-2.23-.53-4.45-1.08-6.68-1.62l-2.86-.7-1.87-.45-.89-.21a1.13,1.13,0,0,0-.3,0Z" transform="translate(-163.99 -120.64)"/><path d="M311.25,148.91a1.16,1.16,0,0,1,.07-.24l.73-1.68c.12-.28.32-.42.61-.3s.3.36.19.61l-.79,1.8a.42.42,0,0,1-.81-.19Z" transform="translate(-163.99 -120.64)" style="fill:#010000"/><path d="M311.3,135.15a.51.51,0,0,1,.39.19,13.33,13.33,0,0,1,1.21,1.59.41.41,0,0,1-.1.63.37.37,0,0,1-.58-.13,14.92,14.92,0,0,0-1.2-1.55.44.44,0,0,1-.07-.48A.42.42,0,0,1,311.3,135.15Z" transform="translate(-163.99 -120.64)" style="fill:#010000"/><path d="M314.2,140.61a3.77,3.77,0,0,1,0,.47.39.39,0,0,1-.39.42.37.37,0,0,1-.43-.33,11.84,11.84,0,0,0-.36-2.06.37.37,0,0,1,.31-.45.39.39,0,0,1,.51.28A7.86,7.86,0,0,1,314.2,140.61Z" transform="translate(-163.99 -120.64)" style="fill:#010000"/><path d="M314.08,143.24a11.35,11.35,0,0,1-.53,2.08.38.38,0,0,1-.5.2.35.35,0,0,1-.27-.43c.15-.7.32-1.41.5-2.11a.37.37,0,0,1,.48-.25C314,142.78,314.08,142.94,314.08,143.24Z" transform="translate(-163.99 -120.64)" style="fill:#010000"/><path d="M310.57,150.63a.41.41,0,0,1,.38.6,5,5,0,0,1-1.25,1.49.41.41,0,0,1-.57-.58,11.6,11.6,0,0,0,1.14-1.38A.35.35,0,0,1,310.57,150.63Z" transform="translate(-163.99 -120.64)" style="fill:#010000"/><path d="M319.5,159.27c-.07.29-.15.6-.23.92l-.72,3c-.13.53-.27.62-.78.5l-8.67-2.12c-.5-.12-.58-.27-.46-.76l.9-3.69c.12-.48.27-.58.72-.47l8.67,2.11C319.21,158.82,319.46,158.89,319.5,159.27Z" transform="translate(-163.99 -120.64)"/><path d="M318.52,159.69l0,.12c-.22.9-.45,1.8-.65,2.7,0,.22-.12.27-.35.22-2.57-.64-5.14-1.26-7.71-1.88-.21,0-.25-.14-.2-.32.23-.92.45-1.83.67-2.74,0-.19.11-.25.32-.2l7.71,1.88C318.39,159.5,318.55,159.49,318.52,159.69Z" transform="translate(-163.99 -120.64)" style="fill:#f19227"/></g></svg>