<svg xmlns="http://www.w3.org/2000/svg" viewBox="0 0 209.9 221.53"><title>Recurso 8</title><g id="Capa_2" data-name="Capa 2"><g id="Capa_1-2" data-name="Capa 1"><path d="M106.18,15.2c.28-.77.63-1.61,1.54-1.62,2.7,0,5.34-.58,8.08-.45,4.42.21,8.87-.11,13.31-.22a7.68,7.68,0,0,1,1.42-.11c4.28.74,8.59.07,12.85,0s8.23.24,12.37-.23c3.92-.46,7.92-.06,11.89-.12,4.28-.07,8.55-.24,12.83-.38A7.7,7.7,0,0,1,181.9,12c4.28.75,8.57-.45,12.86.11,1.7.23,3.48-.33,5.22-.3,2.49,0,2.9.93,2.77,2.9-.08,1.11-.23,2.24.57,3.19,1.85,1.71,1.8,4,1.83,6.23.69,53.15,1.59,106.3,2.38,159.44.13,8.62.38,17.24.36,25.85,0,5.83-1.33,7.23-6.93,7.32-21.4.35-42.8.61-64.19,1q-40.47.68-80.94,1.21c-14.36.21-28.73.5-43.1.7-1.9,0-3.89.06-5.19-1.78H4.67a1.59,1.59,0,0,1-1.62-1.43,2.51,2.51,0,0,1-.07-.94c.78-4.29.09-8.61,0-12.88-.08-4.1.21-8.24-.21-12.38-.36-3.44,0-7-.18-10.48-.28-4.91,0-9.84-.35-14.76-.25-4.12,0-8.26,0-12.39,0-4.29-.19-8.58-.3-12.86a7.81,7.81,0,0,1-.13-1.42c.72-4.29.06-8.61,0-12.88-.07-4.11.31-8.24-.25-12.38a64.35,64.35,0,0,1-.08-9.52c0-4,0-8-.22-11.92C1,87.48,1.6,83.35,1,79.22c-.47-3,.72-6-.21-9,.66-4.13-.15-8.26,0-12.41S.61,49.21.48,44.92a7.66,7.66,0,0,1-.1-1.42c.75-4.29.09-8.62,0-12.88C.26,26.51,1,22.34.05,18.25a4.91,4.91,0,0,1,0-1.43,2,2,0,0,1,2.2-2c2.23,0,4.49-.16,6.66-.08,5.09.19,10.2-.77,15.26.25,2.35,1.81,2.07,4.55,2.33,7,.31,3.07,1.78,4,4.76,3.75,23-2.23,46.12-4.24,69.18-6.22C103.63,19.28,104.6,17.07,106.18,15.2Z" style="fill:#fff"/><path d="M7.54,217.83c4.94-.05,9.88-.09,14.82-.16,3.67,0,7.33-.14,11-.21,8-.15,15.94-.32,23.9-.42,4.15-.06,8.3.05,12.45,0,4.3-.05,8.6-.18,12.9-.35,3.19-.12,6.36.19,9.57-.08,4.12-.35,8.29,0,12.44-.06s8.28-.2,12.42-.3l11-.21c8-.15,15.94-.32,23.91-.43,4.15,0,8.29.06,12.44,0,4.3,0,8.6-.19,12.91-.35,3.18-.11,6.36.17,9.57-.09,4.12-.33,8.28,0,12.43,0,1,0,1.92,0,2.87-.07,4.06-.37,4-.38,4-4.43-.06-4.31.06-8.61,0-12.92,0-4.14-.26-8.28-.34-12.43-.07-4-.06-8-.12-12-.06-4.3-.07-8.61-.29-12.9-.17-3.35,0-6.69-.12-10-.34-7.16-.09-14.35-.17-21.52,0-4.15-.3-8.29-.38-12.43-.06-3.35,0-6.69-.1-10-.26-6.84-.07-13.71-.18-20.56-.11-7-.41-14-.54-21-.08-4.15,0-8.3,0-12.45s-.15-8.6-.34-12.9c-.15-3.19.22-6.36-.09-9.57-.38-4-.11-8-.13-12a14.29,14.29,0,0,1,.55-1.83,1,1,0,0,1,1.14-.65c.41.12,1,.35,1.12.69a11.28,11.28,0,0,1,.8,5.15,112.21,112.21,0,0,0,.31,14.32c.17,3-.27,6,0,9.09.42,4.09,0,8.27.06,12.41,0,4.3.13,8.6.37,12.89.18,3.19-.06,6.37,0,9.55.08,4.13.33,8.28.16,12.43s.21,8.59.3,12.88c.09,3.67.1,7.33.17,11,.1,4.93.28,9.87.33,14.8,0,4.14-.08,8.29,0,12.43,0,4.29.12,8.59.36,12.88.18,3.19,0,6.38,0,9.56.07,4.12.34,8.27.17,12.42s.21,8.59.3,12.89c.08,3.82.07,7.64.14,11.47.07,4.45.15,8.91.27,13.36,0,1.69-.41,2.44-2,2.77a8.56,8.56,0,0,1-2.36.23c-2.56-.15-5.13.12-7.64,0-4.15-.17-8.29.51-12.43.05-2.87-.31-5.7.37-8.6.23-4.12-.19-8.27.22-12.4.39-3,.12-6-.27-9.09,0-4.1.4-8.27,0-12.41.05-4.3,0-8.59.28-12.89.34-3.66,0-7.32-.08-11,.11-2.38.11-4.76,0-7.16.15-4.13.23-8.28,0-12.42,0-4.3.06-8.6.17-12.89.38-2.86.14-5.76.11-8.59.09-4.15,0-8.28.31-12.43.14s-8.59.22-12.89.32c-3.66.08-7.33.21-11,.11-2.4-.06-4.81.23-7.15.1-4.16-.24-8.28.27-12.44.09s-8.27.09-12.4.28C6.85,221.65,6.24,220.72,7.54,217.83Z" style="fill:#e8e8e8"/><path d="M24.39,14a13.65,13.65,0,0,1-.62-2.29C23.35,7,23.38,7,28.11,6.58,40.92,5.39,53.72,4.14,66.54,3c9.33-.85,18.67-1.62,28-2.42C96.61.38,98.67.2,100.73.06c2.92-.19,3.28-.11,3.9,2.73a28.36,28.36,0,0,1,.84,10.38c-1.86,1.86-4.21,2-6.65,2.06-22.14.38-44.29.6-66.43,1C29.54,16.3,26.58,16.43,24.39,14Z" style="fill:#a6d1d8"/><path d="M24.39,14c3.79.3,7.57.42,11.39.4,4.25,0,8.52-.41,12.82-.08,3.59.28,7.25-.23,10.88-.41a6.39,6.39,0,0,1,1.42-.14c4.42.88,8.87-.36,13.29.24,2.54.34,5-.45,7.59-.32,4.24.21,8.52-.19,12.78-.33A6.86,6.86,0,0,1,96,13.28c3.18.57,6.33,0,9.49-.11a2.51,2.51,0,0,0,.71,2c-.41,1.7,1.3,3.84-.17,5-1.22.93-3.32.82-5,1-9.21.83-18.42,1.58-27.62,2.39C65.57,24.24,57.79,25,50,25.7l-21.42,2a8.56,8.56,0,0,1-1.43,0,1.84,1.84,0,0,1-1.91-1.75Q24.71,20.46,24.19,15C24.26,14.66,24.33,14.33,24.39,14Z" style="fill:#afdae1"/><path d="M14.05,99.72c-2.47-.56-3.14-2.5-3.24-4.62a4.75,4.75,0,0,1,5.81-4.59,5.3,5.3,0,0,1,3.05,2.11C19.07,96,16,97.38,14.05,99.72Z" style="fill:#bfbfc1"/><path d="M13.59,55.37c-2.42-.5-3.46-2.09-3.42-4.46s1.6-3.7,3.59-4.61a2.71,2.71,0,0,1,2.31,0,5.07,5.07,0,0,1,3.07,2.82C18.12,52,15.21,53.1,13.59,55.37Z" style="fill:#bfbfc1"/><path d="M11.92,33.06a4.79,4.79,0,0,1-1.75-2.15,4.54,4.54,0,0,1,1.13-5.55c1.54-1.45,3.4-1.63,5.57-.48A16.41,16.41,0,0,1,18.42,26C18,29.91,15.14,31.65,11.92,33.06Z" style="fill:#c0c1c3"/><path d="M13.55,165.37a5.89,5.89,0,0,1-1.2-1.42,5.27,5.27,0,0,1,1.16-6c1.66-1.41,3.73-1.43,6.08,0a7.47,7.47,0,0,1,1.29,1.34C19.22,162.26,17.72,165.43,13.55,165.37Z" style="fill:#bebfc1"/><path d="M15,210a8.49,8.49,0,0,1-1.4-1.26c-1.62-2.31-1.44-4.78.4-6.4,2.07-1.81,4.17-1.88,6.4-.11a6.88,6.88,0,0,1,1.08,1.53C19.88,206.36,18.05,208.78,15,210Z" style="fill:#bdbec0"/><path d="M13,121.07a4.09,4.09,0,0,1-1.67-3.72c.1-2.08.83-3.76,2.86-4.51a4.31,4.31,0,0,1,5.15,1.31,9.27,9.27,0,0,1,.9,1.64C17.66,117.32,17.17,121.73,13,121.07Z" style="fill:#bdbec0"/><path d="M14.27,187.69a5.22,5.22,0,0,1-2-3.08A4.4,4.4,0,0,1,16.35,179a6.44,6.44,0,0,1,4.37,1.49C20.45,184.6,17.67,186.42,14.27,187.69Z" style="fill:#bfc0c2"/><path d="M12.85,143a13.77,13.77,0,0,1-.71-1.22c-1.16-2.55-.88-4.42.88-5.93a5,5,0,0,1,6.11-.28A5.81,5.81,0,0,1,20.32,137C18.66,140.07,17.22,143.37,12.85,143Z" style="fill:#bebfc1"/><path d="M13.37,77.52c-.29,0-.57-.09-.85-.15a6.1,6.1,0,0,1-.93-1A11.47,11.47,0,0,1,11,75.12c-.9-2.69-.45-4.54,1.4-5.85s3.57-1.29,6,.36a3.55,3.55,0,0,1,.62.71C19.06,74.24,15.08,75,13.37,77.52Z" style="fill:#c0c0c2"/><path d="M12.85,143c.46-.1,1.23-.06,1.33-.3,1.21-2.83,3.74-4.19,6.13-5.7a4.55,4.55,0,0,1-1.51,6.24C17,144.62,14.75,145.14,12.85,143Z" style="fill:#e4e4e6"/><path d="M15,210c.31-.36.82-.69.89-1.09.44-2.79,2.21-4.1,4.81-4.61.28-.05.52-.35.78-.54,1.59,2.45.15,4.32-1.5,5.71C18.68,210.52,16.87,211.83,15,210Z" style="fill:#e6e6e8"/><path d="M13.55,165.37c.6-.1,1.48-.07,1.59-.7.51-2.9,2.7-3.89,5.07-4.77.26-.09.45-.4.67-.6,1.66,2.19.24,3.88-1,5.46A5.41,5.41,0,0,1,16,166.42,2.41,2.41,0,0,1,13.55,165.37Z" style="fill:#e6e7e8"/><path d="M14.27,187.69c1.62-2.33,3.21-4.66,5.93-5.9.3-.14.35-.83.52-1.27,1.44,1.52.88,3.3.3,4.84a5.52,5.52,0,0,1-3.81,3.22A2.56,2.56,0,0,1,14.27,187.69Z" style="fill:#e4e5e7"/><path d="M11.92,33.06c.33-.34.83-.62,1-1a6.3,6.3,0,0,1,4.17-4.28A2.14,2.14,0,0,0,18.42,26a4.61,4.61,0,0,1-.3,5.71c-1.43,1.91-3.57,2.36-5.89,1.75C12.1,33.37,12,33.18,11.92,33.06Z" style="fill:#e4e5e7"/><path d="M13,121.07c.76-.16,1.65-.33,1.82-1.19.61-3,2.8-3.81,5.42-4.09,1.24,2.34,0,4-1.68,5.32A4,4,0,0,1,13,121.07Z" style="fill:#e2e3e5"/><path d="M13.37,77.52c.42-2.82,1.61-5,4.63-5.74.44-.12.7-.94,1.05-1.44,1.17,1.65.65,3.39.06,5a3.49,3.49,0,0,1-2.89,2.25A17,17,0,0,1,13.37,77.52Z" style="fill:#e1e2e4"/><path d="M14.05,99.72A5.65,5.65,0,0,1,18,94.1c.66-.25,1.13-1,1.69-1.48,1.27,1.6.72,3.21,0,4.78a4.29,4.29,0,0,1-3.28,2.35A11.18,11.18,0,0,1,14.05,99.72Z" style="fill:#e4e5e7"/><path d="M13.59,55.37c.09-2.93,1.18-5,4.37-5.53a3.64,3.64,0,0,0,1.18-.68c1.29,1.75.39,3.22-.55,4.72A3.43,3.43,0,0,1,15,55.52Z" style="fill:#e5e6e8"/><path d="M11.59,76.4l.93,1Z" style="fill:#e1e2e4"/></g></g></svg>