<svg xmlns="http://www.w3.org/2000/svg" viewBox="0 0 508.98 509.68"><title>Recurso 3</title><g id="Capa_2" data-name="Capa 2"><g id="Capa_2-2" data-name="Capa 2"><polygon points="48.53 36.85 38.53 48.18 1.5 12.82 11.5 1.49 48.53 36.85" style="fill:#eaeaea"/><rect x="27.45" y="28.88" width="453" height="453" style="fill:none;stroke:#cc3a3a;stroke-miterlimit:10"/><rect x="34.3" y="35.73" width="439.31" height="439.31" style="fill:none;stroke:#478bd6;stroke-miterlimit:10"/><rect x="41.14" y="42.58" width="426.19" height="426.19" style="fill:none;stroke:#b72c2c;stroke-miterlimit:10;stroke-width:2px"/><polyline points="46.75 471.82 12.73 507.49 1.48 497.57 35.51 461.89" style="fill:#eaeaea"/><line x1="15.59" y1="16.03" x2="30.69" y2="31.14" style="fill:none;stroke:#707070;stroke-linecap:round;stroke-miterlimit:10;stroke-width:2px"/><polyline points="459.05 39.94 495.7 1.56 507.45 11.93 470.8 50.31" style="fill:#eaeaea"/><polyline points="469.86 461.06 507.46 496.97 497.3 508.47 459.7 472.57" style="fill:#eaeaea"/><line x1="492.37" y1="16.16" x2="476.72" y2="31.82" style="fill:none;stroke:#707070;stroke-linecap:round;stroke-miterlimit:10;stroke-width:2px"/><line x1="15.92" y1="493.51" x2="29.83" y2="479.59" style="fill:none;stroke:#707070;stroke-linecap:round;stroke-miterlimit:10;stroke-width:2px"/><line x1="493.15" y1="493.71" x2="477.82" y2="478.37" style="fill:none;stroke:#707070;stroke-linecap:round;stroke-miterlimit:10;stroke-width:2px"/><g id="red_corner" data-name="red corner"><path d="M25.28,23.59H51.19a0,0,0,0,1,0,0V52.71a0,0,0,0,1,0,0h-28a0,0,0,0,1,0,0v-27A2.14,2.14,0,0,1,25.28,23.59Z" style="fill:#ea403d"/><path d="M68.45,67.82,51.19,52.71V23.59L67.72,41.15A2.7,2.7,0,0,1,68.45,43Z" style="fill:#ba3838"/><path d="M68.45,67.82H41.4a2.68,2.68,0,0,1-1.75-.66L23.14,52.71H51.19Z" style="fill:#d33d3d"/></g><g id="blue_corner" data-name="blue corner"><path d="M458,456.22H484.3a0,0,0,0,1,0,0V485.8a0,0,0,0,1,0,0H455.81a0,0,0,0,1,0,0V458.36A2.14,2.14,0,0,1,458,456.22Z" transform="translate(940.11 942.02) rotate(180)" style="fill:#4993f6"/><path d="M438.28,440.88l17.53,15.34V485.8L439,468a2.74,2.74,0,0,1-.75-1.88Z" style="fill:#4492d8"/><path d="M438.28,440.88h27.47a2.7,2.7,0,0,1,1.79.68l16.76,14.66H455.81Z" style="fill:#4284cc"/></g><g id="blue_corner-2" data-name="blue corner"><path d="M456.88,23.36h26.94a0,0,0,0,1,0,0V53.55a0,0,0,0,1,0,0H454.74a0,0,0,0,1,0,0V25.5A2.14,2.14,0,0,1,456.88,23.36Z" transform="translate(507.73 -430.83) rotate(90)" style="fill:#efefef"/><path d="M438.53,70.88,454.18,53h30.2l-18.2,17.13a2.8,2.8,0,0,1-1.92.76Z" style="fill:#c9c9c9"/><path d="M438.53,70.88v-28a2.76,2.76,0,0,1,.68-1.82l15-17.12V53Z" style="fill:#e0e0e0"/></g><g id="blue_corner-3" data-name="blue corner"><path d="M27.23,455.34h25.7a0,0,0,0,1,0,0v28.91a0,0,0,0,1,0,0H25.09a0,0,0,0,1,0,0V457.48A2.14,2.14,0,0,1,27.23,455.34Z" transform="translate(-430.79 508.8) rotate(-90)" style="fill:#efefef"/><path d="M68.45,438.75l-15,17.13H24.55L42,439.48a2.67,2.67,0,0,1,1.84-.73Z" style="fill:#c9c9c9"/><path d="M68.45,438.75v26.84a2.64,2.64,0,0,1-.65,1.74L53.46,483.72V455.88Z" style="fill:#e0e0e0"/></g><ellipse cx="6.98" cy="7.37" rx="7.51" ry="6.5" transform="translate(-3.17 7.51) rotate(-47.34)" style="fill:#fff"/><ellipse cx="501.36" cy="7.24" rx="6.74" ry="7.78" transform="translate(156.3 371.03) rotate(-47.34)" style="fill:#fff"/><ellipse cx="7.31" cy="502.05" rx="6.45" ry="7.45" transform="translate(-366.85 167.22) rotate(-47.34)" style="fill:#fff"/><ellipse cx="501.89" cy="502.51" rx="7.62" ry="6.6" transform="translate(-207.75 531.08) rotate(-47.34)" style="fill:#fff"/></g></g></svg>